# xmcd
#
# Track frame offsets: 
#        150
#        17773
#        34937
#        56706
#        78957
#        99357
#        118461
#        139544
#        153373
#        173575
#
# Disc length: 2632 seconds
#
# Revision: 0
# Processed by: cddbd v1.5.2PL0 Copyright (c) Steve Scherf et al.
# Submitted via: ExactAudioCopyFreeDBPlugin 1.0
#
DISCID=790a460a
DTITLE=The MacKenzie Blues Band - Back Road Revelation
DYEAR=2012
DGENRE=Blues
TTITLE0=The River
TTITLE1=Blinded By Desire
TTITLE2=Don't Let The Devil Get On Your Train
TTITLE3=Fine On Friday
TTITLE4=Wrong Lane
TTITLE5=Heavy Love
TTITLE6=Long Slow Slide
TTITLE7=The Man That Got Around Town
TTITLE8=Treat Me Like I'm Trouble
TTITLE9=I'm Gone
EXTD=
EXTT0=
EXTT1=
EXTT2=
EXTT3=
EXTT4=
EXTT5=
EXTT6=
EXTT7=
EXTT8=
EXTT9=
PLAYORDER=
